<?xml version="1.0" encoding="UTF-8"?>
<svg version="1.1" viewBox="0 0 2048 2048" width="512" height="512" xmlns="http://www.w3.org/2000/svg">
<path transform="translate(483,128)" d="m0 0h1065l30 2 30 4 26 6 24 7 29 11 33 16 22 13 19 13 14 11 11 9 13 12 4 3v2l4 2 14 15 13 15 13 17 16 24 11 19 8 15 10 23 10 27 8 29 5 25 4 33 1 20v1039l-1 27-4 32-5 26-8 28-10 28-11 24-12 23-15 24-12 16-11 14-9 10-7 8-21 21-11 9-13 11-17 12-17 11-23 13-25 12-29 11-23 7-32 7-31 4-11 1-24 1h-1026l-28-1-21-2-25-4-30-7-36-12-25-11-20-10-17-10-18-12-16-12-11-9-14-12-24-24-7-8-13-16-13-18-11-17-14-25-9-19-10-25-8-25-6-24-5-29-3-33v-1076l2-17 4-25 6-25 7-24 10-26 7-16 10-19 8-14 9-14 12-17 11-14 9-10 7-8 12-13 15-14 11-9 15-12 19-13 18-11 26-14 23-10 25-9 25-7 29-6 20-3z" fill="#6BB9FD"/>
<path transform="translate(968,479)" d="m0 0h103l43 1 35 3 30 4 26 5 32 8 29 9 29 11 33 15 15 8 12 6 28 17 16 11 14 10 14 11 11 9 15 13 13 12 22 22v2h2l9 11 9 10 11 14 10 13 13 19 12 19 12 21 11 21 13 29 11 28 10 32 9 36 6 32 4 34 2 28v45l-3 38-4 28-5 26-8 32-8 26-9 24-11 26-20 40-17 28-15 22-13 18-14 17-12 14-12 13-24 24-8 7-13 11-16 13-18 13-13 9-19 12-13 8-12 6-16 9-33 15-26 10-24 8-29 8-34 7-28 4-32 3-25 1h-144l-19-3-16-6-13-7-9-7-9-8-9-12-8-16-4-13-2-10-1-10-1-23v-864l1-22 3-17 6-16 8-13 8-10 10-10 10-7 15-8 16-5 7-1z" fill="#FEFDFD"/>
<path transform="translate(1468,128)" d="m0 0h80l30 2 30 4 26 6 24 7 29 11 33 16 22 13 19 13 14 11 11 9 13 12 4 3v2l4 2 14 15 13 15 13 17 16 24 11 19 8 15 10 23 10 27 8 29 5 25 4 33 1 20v1039l-1 27-4 32-5 26-8 28-10 28-11 24-12 23-15 24-12 16-11 14-9 10-7 8-21 21-11 9-13 11-17 12-17 11-23 13-25 12-29 11-23 7-32 7-31 4-11 1-24 1h-1026l-28-1-21-2-25-4-30-7-36-12-25-11-20-10-17-10-18-12-16-12-11-9-14-12-24-24-7-8-13-16-13-18-11-17-14-25-9-19-10-25-8-25-6-24-5-29-3-33v-1076h1l1 1026 2 26 3 10 13 41 8 20 8 16 10 18 11 17 8 11 18 22 23 23 2 1v2l4 2 13 11 11 8 9 6 15 9 16 9 13 6 22 9 30 9 17 4 27 4 13 1 70 1h961l35-1 29-3 31-6 27-8 29-12 19-10 9-6 9-5 14-10 8-6 6-5h2v-2l8-6 8-8h2l1-3 5-5h2l2-4 9-10 5-6h2l2-4 14-19 3-5h2l2-5 15-26 11-24 9-25 7-27 4-24 2-23 1-27v-1012l-1-28-3-27-3-18-7-26-8-23-9-21-9-17-10-18-11-16-9-12-7-8v-2l-3-1-7-8-15-15-8-7-13-11-14-10-15-10-23-13-26-12-19-7-22-7-22-5-7-2-52-1z" fill="#597DDD"/>
<path transform="translate(1062,672)" d="m0 0h47l24 2 29 5 30 8 25 9 20 9 26 13 19 12 17 12 16 13 11 9 22 22 7 8 13 16 13 18 12 20 8 14 12 26 9 25 7 23 5 22 4 26 2 34v18l-2 28-4 27-6 26-6 20-8 21-9 20-10 19-13 21-12 17-8 10-12 14-11 12-13 13-11 9-13 11-18 13-13 8-18 10-22 11-23 9-21 7-24 6-21 4-29 3-23 1h-33l-1-703z" fill="#6CBAFE"/>
<path transform="translate(596,480)" d="m0 0h21l20 4 15 6 16 10 11 10 9 12 6 10 7 19 2 12 1 12 1 33v850l-1 21-3 19-5 13-8 14-7 9-9 10-14 10-12 6-18 6-11 2h-17l-20-4-15-6-11-6-9-7-8-7-10-13-8-16-4-13-2-10-1-10-1-23v-863l1-23 3-17 6-16 8-13 9-11 9-9 15-10 14-6 14-4z" fill="#FEFDFD"/>
</svg>
